<?xml version="1.0" encoding="UTF-8"?>
<svg xmlns="http://www.w3.org/2000/svg" version="1.2" viewBox="0 0 510 510" width="510" height="510">
  <title>sigzen-dark-logo-svg</title>
  <style>
		.s0 { fill: #eb5f27 } 
		.s1 { fill: #223552 } 
	</style>
  <path id="Layer" fill-rule="evenodd" class="s0" d="m351.9 501.6c59.4-68.5 59.4-136.9 22-196.5-30.4-48.3-66-70.2-104.7-101.2-65.3-52.4-78.4-105.2-51.4-150.4 60.4-105.6 325.5-5.7 287 261.7-14.4 83.7-82.1 151-152.9 186.4z"></path>
  <path id="Layer" fill-rule="evenodd" class="s1" d="m145.9 24.6c-42.2 98.5-4.6 172 76.7 231.8 49.1 35.1 77.3 66.7 88.8 96.7 29.6 76.7-41.9 141.6-120.3 135.6-93.9-7.1-203.6-96.4-189.9-261.3 16.1-94.1 65.2-163 144.7-202.8z"></path>
</svg>
